<svg xmlns="http://www.w3.org/2000/svg" width="94" height="40" viewBox="0 0 94 40">
    <g fill="none" fill-rule="evenodd">
        <path fill="#FFF" d="M5.052 4.948l-1.22 11.119h-.098L2.611 4.947H0l1.757 14.639h3.906L7.639 4.948zM11.007 11.13h2.1V8.002c0-.472-.066-.773-.196-.904-.13-.13-.415-.195-.854-.195-.456 0-.745.065-.867.195s-.183.432-.183.904v3.128zm0 2.004v3.446c0 .472.061.778.183.916.122.139.411.208.867.208.439 0 .724-.07.854-.208.13-.138.195-.444.195-.916V14.6h2.246v2.126c0 .685-.045 1.23-.134 1.638-.09.407-.257.72-.5.94-.245.22-.579.363-1.001.428-.424.065-.977.098-1.66.098-.716 0-1.302-.033-1.757-.098-.456-.065-.814-.208-1.074-.427-.26-.22-.436-.534-.525-.941-.09-.407-.134-.953-.134-1.638v-8.92c0-.683.045-1.23.134-1.636.089-.407.264-.721.525-.941.26-.22.618-.363 1.074-.428a12.92 12.92 0 0 1 1.757-.098c.683 0 1.236.033 1.66.098.422.065.756.208 1 .428s.411.534.5.94c.09.408.135.954.135 1.638v5.327h-4.345zM19.818 19.586h-2.49V4.948h2.32v.977c.178-.326.45-.59.817-.794.366-.204.85-.306 1.452-.306.846 0 1.436.212 1.77.636.333.424.5 1.206.5 2.346v3.64h-2.245V8.1c0-.39-.066-.66-.196-.806-.13-.147-.407-.22-.83-.22-.553 0-.919.269-1.098.806v11.706zM29.922 7.831c-.211-.505-.577-.757-1.098-.757-.423 0-.7.081-.83.244-.13.163-.195.489-.195.978v7.966c0 .489.065.815.195.978.13.163.407.244.83.244.52 0 .887-.252 1.098-.758V7.831zm-4.54-.024c0-.57.033-1.047.098-1.43.065-.382.187-.688.367-.916.178-.228.418-.39.72-.489.3-.098.695-.146 1.183-.146.553 0 .997.09 1.33.268.334.18.59.432.77.758V.28h2.513v19.306h-2.319v-1.051c-.228.424-.516.725-.866.904-.35.179-.818.269-1.404.269-.487 0-.887-.046-1.195-.135a1.39 1.39 0 0 1-.732-.476c-.18-.228-.302-.534-.367-.917a8.912 8.912 0 0 1-.097-1.454v-8.92zM37.61 17.777c.358 0 .618-.004.781-.012.163-.008.269-.02.318-.037v-4.79a1.04 1.04 0 0 0-.415-.122 6.978 6.978 0 0 0-.66-.024c-.472 0-.76.09-.866.269-.106.18-.158.521-.158 1.026v2.297c0 .278.008.505.024.685.016.179.057.321.122.427.065.106.167.18.305.22.138.041.321.061.55.061m-.196 2.053a9.77 9.77 0 0 1-1.525-.098c-.4-.065-.712-.195-.94-.39-.228-.196-.387-.481-.476-.856-.09-.375-.134-.871-.134-1.49v-3.544c0-.88.166-1.523.5-1.93.333-.408.907-.612 1.72-.612h.464c.553 0 .944.021 1.172.061.228.041.399.095.513.16V8.1c0-.538-.07-.883-.208-1.038-.139-.155-.435-.233-.89-.233-.44 0-.717.09-.83.269-.114.18-.171.513-.171 1.002v1.442h-2.27V7.807c0-.684.045-1.23.134-1.637.089-.408.256-.721.5-.941.244-.22.578-.363 1.001-.428.423-.065.968-.098 1.635-.098.732 0 1.326.033 1.782.098.455.065.81.208 1.062.428.251.22.427.533.525.94.097.408.146.954.146 1.638v11.779c-.293.08-.74.142-1.342.183-.603.04-1.392.06-2.368.06M47.544 7.831c-.212-.505-.578-.757-1.099-.757-.423 0-.7.081-.83.244-.13.163-.195.489-.195.978v7.966c0 .489.065.815.196.978.13.163.406.244.83.244.52 0 .886-.252 1.098-.758V7.831zm-4.54-.024c0-.57.032-1.047.098-1.43.065-.382.186-.688.366-.916.179-.228.419-.39.72-.489.3-.098.695-.146 1.183-.146.553 0 .997.09 1.33.268.334.18.59.432.77.758V.28h2.513v19.306h-2.318v-1.051c-.228.424-.517.725-.867.904-.35.179-.817.269-1.403.269-.488 0-.887-.046-1.196-.135a1.39 1.39 0 0 1-.732-.476c-.18-.228-.301-.534-.366-.917a8.916 8.916 0 0 1-.098-1.454v-8.92zM54.402 11.13H56.5V8.002c0-.472-.065-.773-.196-.904-.13-.13-.414-.195-.854-.195-.456 0-.744.065-.866.195s-.183.432-.183.904v3.128zm0 2.004v3.446c0 .472.06.778.183.916.122.139.41.208.866.208.44 0 .724-.07.854-.208.13-.138.196-.444.196-.916V14.6h2.245v2.126c0 .685-.045 1.23-.134 1.638-.09.407-.256.72-.5.94-.244.22-.578.363-1.001.428-.423.065-.976.098-1.66.098-.716 0-1.302-.033-1.757-.098-.456-.065-.814-.208-1.074-.427-.26-.22-.435-.534-.525-.941-.09-.407-.134-.953-.134-1.638v-8.92c0-.683.045-1.23.134-1.636.09-.407.264-.721.525-.941.26-.22.618-.363 1.074-.428.455-.065 1.04-.098 1.757-.098.684 0 1.237.033 1.66.098.423.065.757.208 1 .428.245.22.411.534.5.94.09.408.135.954.135 1.638v5.327h-4.344zM34.6 25v-1.1c0-.423-.06-.704-.182-.843-.123-.138-.412-.207-.867-.207-.472 0-.769.07-.891.207-.122.14-.183.42-.183.843v1.173c0 .196.012.359.037.49a.91.91 0 0 0 .158.366c.081.114.208.22.379.318.17.097.394.203.67.317.359.147.672.286.94.416.27.13.517.253.745.366.358.18.642.355.854.525.211.172.374.355.488.55.114.196.187.403.22.623.032.22.049.477.049.77v2.713c0 .684-.045 1.234-.135 1.65-.09.415-.26.733-.512.952-.253.22-.602.363-1.05.428-.447.065-1.037.098-1.77.098-.715 0-1.3-.033-1.756-.098-.456-.065-.814-.208-1.074-.428-.26-.22-.44-.537-.537-.953-.098-.415-.146-.965-.146-1.65V30.28h2.44v1.979c0 .44.065.73.195.868s.423.207.879.207c.472 0 .765-.073.879-.22.113-.147.17-.431.17-.855v-1.784c0-.212-.016-.391-.048-.538a.835.835 0 0 0-.208-.39 1.77 1.77 0 0 0-.451-.33 7.065 7.065 0 0 0-.806-.355 20.874 20.874 0 0 1-1.537-.684 4.336 4.336 0 0 1-.757-.489 1.897 1.897 0 0 1-.464-.562 2.205 2.205 0 0 1-.232-.72c-.04-.27-.06-.591-.06-.966v-1.784c0-.684.048-1.234.146-1.65.098-.415.272-.733.525-.952.251-.22.606-.363 1.061-.428.456-.065 1.05-.098 1.782-.098.716 0 1.301.033 1.757.098.456.065.81.208 1.062.428s.423.537.512.952c.09.416.135.966.135 1.65V25H34.6zM41.19 26.955h2.1v-3.128c0-.472-.066-.774-.196-.904s-.415-.196-.854-.196c-.456 0-.745.066-.867.196s-.183.432-.183.904v3.128zm0 2.004v3.446c0 .472.061.778.183.916.122.139.411.208.867.208.439 0 .723-.07.854-.208.13-.138.195-.444.195-.916v-1.98h2.245v2.126c0 .684-.045 1.23-.134 1.637-.09.408-.256.721-.5.942-.244.22-.578.362-1 .427-.424.065-.977.098-1.66.098-.717 0-1.302-.033-1.758-.098-.455-.065-.813-.208-1.074-.427-.26-.22-.435-.534-.524-.942-.09-.407-.135-.953-.135-1.637v-8.92c0-.684.045-1.23.135-1.637.089-.407.264-.72.524-.94.26-.22.619-.363 1.074-.428.456-.065 1.041-.098 1.758-.098.683 0 1.236.033 1.66.098.422.065.756.208 1 .428s.41.533.5.94c.09.408.134.953.134 1.638v5.327H41.19zM47.609 20.773h2.49v14.882c0 1.173-.265 2.048-.794 2.627-.529.578-1.42.867-2.672.867h-1.367v-2.101h1.172c.422 0 .723-.102.903-.306.178-.204.268-.566.268-1.087V20.773zM55.2 33.602c.357 0 .618-.004.78-.012a1.48 1.48 0 0 0 .318-.037v-4.79a1.05 1.05 0 0 0-.415-.122 7.074 7.074 0 0 0-.66-.024c-.471 0-.76.09-.866.269-.106.18-.158.521-.158 1.026v2.297c0 .278.008.505.024.684a.98.98 0 0 0 .122.428c.065.106.167.18.305.22.138.04.321.061.55.061m-.196 2.053a9.767 9.767 0 0 1-1.525-.098c-.399-.065-.712-.196-.94-.39-.228-.196-.387-.481-.476-.856-.09-.375-.134-.871-.134-1.491v-3.543c0-.88.166-1.523.5-1.93.333-.408.907-.612 1.72-.612h.465c.553 0 .943.021 1.171.061.228.041.399.094.513.16v-3.031c0-.538-.07-.884-.208-1.039-.138-.154-.435-.232-.89-.232-.44 0-.717.09-.83.269-.114.18-.171.513-.171 1.002v1.442h-2.27v-1.735c0-.685.044-1.23.134-1.638.09-.407.256-.72.5-.94.244-.22.578-.363 1-.428.424-.065.969-.098 1.636-.098.733 0 1.326.033 1.782.098.455.065.81.208 1.062.428s.427.533.524.94c.098.408.147.953.147 1.638V35.41c-.293.082-.74.143-1.342.184-.603.04-1.391.06-2.368.06"/>
        <path fill="#FF0336" d="M92.498 35.656H60.617l2.266-4.792V10.688h29.615z"/>
        <path fill="#20A14F" d="M62.838 35.656h30.914V4.703H62.838z"/>
        <path fill="#FB0" d="M62.838 35.656h30.914V7.696H62.838z"/>
        <path fill="#FF0336" d="M62.838 35.656h30.914V10.688H62.838z"/>
        <path fill="#FFF" d="M73.322 25.508c-.145-.347-.397-.52-.755-.52-.29 0-.481.055-.57.167-.09.112-.135.336-.135.672v5.478c0 .336.045.56.135.673.089.112.28.168.57.168.358 0 .61-.174.755-.521v-6.117zm-3.121-.017c0-.392.022-.72.067-.983.044-.263.128-.473.252-.63.123-.157.288-.269.495-.336.206-.067.478-.1.814-.1.38 0 .685.061.914.184.23.123.406.297.529.52v-3.83H75V33.59h-1.595v-.723c-.157.292-.355.5-.596.622-.24.123-.562.185-.964.185-.336 0-.61-.031-.823-.092a.957.957 0 0 1-.503-.328c-.124-.157-.208-.367-.252-.63a6.137 6.137 0 0 1-.067-1V25.49zM76.527 33.59h1.696V23.526h-1.696V33.59zm0-11.527h1.696v-1.747h-1.696v1.747zM82.67 24.92h-1.175v6.318c0 .348.056.583.168.706.112.123.336.185.671.185h.32v1.462h-.437c-.459 0-.845-.042-1.158-.126-.313-.084-.565-.213-.755-.387a1.407 1.407 0 0 1-.403-.663 3.438 3.438 0 0 1-.117-.958V24.92h-.621v-1.395h.62v-3.058h1.712v3.058h1.175v1.395zM85.91 32.347c.245 0 .425-.002.536-.008.112-.006.185-.014.219-.025V29.02a.72.72 0 0 0-.286-.084 4.904 4.904 0 0 0-.453-.017c-.325 0-.523.062-.596.185-.073.123-.109.359-.109.706v1.58c0 .19.006.347.017.47.011.123.039.221.084.294a.35.35 0 0 0 .21.151c.094.028.22.042.377.042m-.134 1.412c-.425 0-.775-.023-1.049-.067-.274-.045-.49-.135-.646-.27-.157-.134-.266-.33-.327-.587-.062-.258-.093-.6-.093-1.025v-2.437c0-.605.115-1.047.344-1.327.23-.28.624-.42 1.183-.42h.32c.38 0 .648.013.805.041.157.029.274.065.353.11v-2.084c0-.37-.048-.608-.143-.714-.095-.107-.3-.16-.613-.16-.302 0-.492.062-.57.185-.079.123-.118.353-.118.689v.991h-1.56v-1.193c0-.47.03-.845.092-1.126.061-.28.176-.495.344-.647.168-.15.397-.249.688-.293a7.6 7.6 0 0 1 1.124-.068c.504 0 .912.022 1.226.068.313.044.556.142.73.293.173.152.293.367.36.647.068.28.101.656.101 1.126v8.1c-.201.056-.51.098-.923.126-.414.028-.957.042-1.628.042M89.753 33.59h1.762v-2.217h-1.762z"/>
    </g>
</svg>
