<svg xmlns="http://www.w3.org/2000/svg" width="120" height="50" viewBox="0 0 120 50">
    <g fill="none" fill-rule="evenodd">
        <path fill="#FFF" d="M6.45 6.308L4.891 20.485h-.125L3.334 6.308H0l2.243 18.664H7.23L9.752 6.308zM14.052 14.191h2.68v-3.988c0-.602-.084-.986-.25-1.153-.166-.166-.53-.25-1.09-.25-.582 0-.95.084-1.106.25-.156.167-.234.55-.234 1.153v3.988zm0 2.555v4.393c0 .603.078.992.234 1.169.155.176.524.265 1.106.265.56 0 .924-.089 1.09-.265.166-.177.25-.566.25-1.169v-2.523h2.866v2.71c0 .873-.057 1.569-.171 2.088-.115.519-.327.919-.639 1.2-.312.28-.738.462-1.277.545-.541.082-1.247.124-2.12.124-.914 0-1.661-.042-2.243-.124-.581-.083-1.038-.265-1.37-.546-.333-.28-.557-.68-.67-1.2-.115-.518-.172-1.214-.172-2.087V9.954c0-.873.057-1.569.172-2.088.113-.519.337-.919.67-1.2.332-.28.789-.461 1.37-.545.582-.082 1.33-.124 2.244-.124.872 0 1.578.042 2.119.124.54.084.965.265 1.277.546.312.28.524.68.639 1.2.114.519.17 1.214.17 2.087v6.792h-5.545zM25.3 24.972h-3.178V6.308h2.96v1.246c.228-.415.576-.752 1.044-1.012.467-.26 1.085-.39 1.853-.39 1.08 0 1.833.27 2.26.81.425.541.638 1.538.638 2.992v4.642H28.01v-4.268c0-.499-.084-.842-.25-1.029-.166-.186-.52-.28-1.059-.28-.707 0-1.174.343-1.402 1.028v14.925zM38.199 9.985c-.27-.644-.738-.966-1.402-.966-.54 0-.894.104-1.06.311-.166.209-.249.624-.249 1.247v10.157c0 .624.083 1.04.25 1.246.165.208.518.312 1.059.312.664 0 1.132-.322 1.402-.966V9.985zm-5.796-.031c0-.727.042-1.335.125-1.823.083-.488.239-.877.468-1.168a1.87 1.87 0 0 1 .919-.624c.384-.124.888-.186 1.51-.186.707 0 1.273.114 1.699.342.426.229.753.551.981.966V.357h3.21v24.615h-2.96v-1.34c-.291.54-.66.924-1.106 1.153-.447.228-1.044.342-1.792.342-.623 0-1.133-.057-1.527-.17a1.774 1.774 0 0 1-.934-.608c-.23-.291-.385-.68-.468-1.169-.083-.488-.125-1.106-.125-1.854V9.954zM48.013 22.666c.456 0 .79-.005.997-.016.208-.01.343-.025.405-.046v-6.107a1.329 1.329 0 0 0-.53-.156 8.919 8.919 0 0 0-.84-.031c-.604 0-.972.114-1.107.342-.135.23-.202.665-.202 1.309v2.929c0 .354.01.644.031.872.02.229.072.41.156.546a.647.647 0 0 0 .389.28c.176.052.41.078.701.078m-.249 2.617c-.79 0-1.439-.042-1.947-.124-.51-.084-.91-.25-1.2-.499-.291-.249-.494-.613-.608-1.09-.114-.478-.171-1.111-.171-1.901V17.15c0-1.121.213-1.942.639-2.461.425-.52 1.157-.78 2.196-.78h.592c.706 0 1.204.027 1.496.079.29.052.509.12.654.202v-3.864c0-.685-.088-1.126-.264-1.323-.178-.198-.557-.297-1.138-.297-.56 0-.914.115-1.06.343-.145.23-.217.654-.217 1.277v1.839h-2.898V9.954c0-.873.057-1.568.171-2.088.114-.519.328-.919.639-1.2.311-.28.737-.461 1.278-.545.54-.082 1.235-.124 2.087-.124.935 0 1.693.042 2.275.124.58.084 1.033.265 1.355.546.321.28.545.68.67 1.2.125.519.187 1.214.187 2.087v15.018c-.374.103-.946.181-1.714.233-.769.052-1.776.078-3.022.078M60.694 9.985c-.27-.644-.737-.966-1.402-.966-.54 0-.893.104-1.06.311-.166.209-.249.624-.249 1.247v10.157c0 .624.083 1.04.25 1.246.166.208.519.312 1.059.312.665 0 1.132-.322 1.402-.966V9.985zm-5.795-.031c0-.727.041-1.335.124-1.823.083-.488.239-.877.468-1.168.228-.29.534-.499.92-.624.383-.124.887-.186 1.51-.186.706 0 1.272.114 1.698.342.426.229.753.551.981.966V.357h3.21v24.615h-2.96v-1.34c-.291.54-.66.924-1.106 1.153-.447.228-1.044.342-1.792.342-.623 0-1.132-.057-1.527-.17a1.774 1.774 0 0 1-.934-.608c-.23-.291-.385-.68-.468-1.169-.083-.488-.124-1.106-.124-1.854V9.954zM69.449 14.191h2.68v-3.988c0-.602-.084-.986-.25-1.153-.166-.166-.53-.25-1.09-.25-.582 0-.95.084-1.107.25-.155.167-.233.55-.233 1.153v3.988zm0 2.555v4.393c0 .603.078.992.233 1.169.157.176.525.265 1.107.265.56 0 .924-.089 1.09-.265.166-.177.25-.566.25-1.169v-2.523h2.866v2.71c0 .873-.058 1.569-.171 2.088-.115.519-.328.919-.639 1.2-.311.28-.738.462-1.278.545-.54.082-1.246.124-2.118.124-.915 0-1.662-.042-2.243-.124-.582-.083-1.04-.265-1.371-.546-.333-.28-.556-.68-.67-1.2-.115-.518-.172-1.214-.172-2.087V9.954c0-.873.057-1.569.172-2.088.114-.519.337-.919.67-1.2.332-.28.789-.461 1.37-.545.582-.082 1.33-.124 2.244-.124.872 0 1.578.042 2.118.124.54.084.967.265 1.278.546.311.28.524.68.639 1.2.114.519.171 1.214.171 2.087v6.792h-5.546zM44.171 31.875v-1.402c0-.54-.078-.898-.234-1.075-.156-.176-.525-.265-1.106-.265-.603 0-.981.089-1.138.265-.155.177-.233.535-.233 1.075v1.496c0 .249.016.457.047.623.031.166.098.322.202.467.104.146.265.28.483.405.218.125.504.26.857.405.457.187.857.364 1.2.53.343.166.659.322.95.467.457.23.82.452 1.09.67.27.218.478.452.624.701.145.25.238.514.28.794.042.281.063.608.063.982v3.458c0 .873-.058 1.574-.172 2.104-.114.53-.332.935-.654 1.215-.323.28-.769.462-1.34.545-.572.083-1.324.125-2.259.125-.914 0-1.662-.042-2.243-.125-.582-.083-1.04-.265-1.371-.545-.333-.28-.561-.686-.686-1.215-.124-.53-.186-1.231-.186-2.104v-2.866h3.115v2.524c0 .56.083.93.25 1.106.165.177.54.265 1.121.265.602 0 .976-.094 1.122-.28.145-.188.218-.55.218-1.091v-2.275c0-.27-.021-.498-.063-.685a1.065 1.065 0 0 0-.264-.498 2.258 2.258 0 0 0-.577-.421 9.024 9.024 0 0 0-1.028-.452 26.666 26.666 0 0 1-1.963-.872 5.536 5.536 0 0 1-.966-.623 2.419 2.419 0 0 1-.592-.717 2.81 2.81 0 0 1-.296-.92 8.38 8.38 0 0 1-.077-1.23V30.16c0-.872.062-1.573.186-2.103.125-.53.348-.934.67-1.215.322-.28.774-.462 1.356-.545.58-.083 1.34-.125 2.274-.125.914 0 1.661.042 2.243.125.582.083 1.033.265 1.356.545.322.28.54.686.654 1.215.114.53.172 1.231.172 2.103v1.714H44.17zM52.583 34.368h2.68v-3.989c0-.602-.083-.986-.25-1.152-.166-.166-.53-.25-1.09-.25-.582 0-.95.084-1.106.25-.156.166-.234.55-.234 1.152v3.989zm0 2.555v4.393c0 .603.078.992.234 1.169.156.176.524.264 1.106.264.56 0 .924-.088 1.09-.264.167-.177.25-.566.25-1.17v-2.523h2.866v2.711c0 .872-.057 1.568-.171 2.087-.115.52-.327.92-.639 1.2-.311.28-.737.462-1.277.545-.54.083-1.247.125-2.119.125-.915 0-1.662-.042-2.243-.125-.582-.083-1.04-.264-1.371-.545-.333-.28-.556-.68-.67-1.2-.115-.519-.172-1.215-.172-2.087V30.131c0-.873.057-1.569.172-2.088.114-.52.337-.92.67-1.2.332-.28.789-.462 1.37-.545.582-.083 1.33-.125 2.244-.125.872 0 1.578.042 2.119.125.54.083.966.265 1.277.545.312.28.524.68.639 1.2.114.52.171 1.215.171 2.088v6.792h-5.546zM60.777 26.485h3.178V45.46c0 1.495-.337 2.612-1.012 3.35-.675.736-1.813 1.105-3.412 1.105h-1.745v-2.679h1.496c.54 0 .924-.13 1.153-.39.228-.26.342-.722.342-1.386V26.485zM70.467 42.843c.457 0 .79-.005.998-.016.207-.01.342-.026.404-.047v-6.106a1.34 1.34 0 0 0-.53-.156 9.042 9.042 0 0 0-.84-.032c-.603 0-.972.115-1.107.343-.135.23-.202.665-.202 1.309v2.928c0 .354.01.645.03.873.021.229.073.41.157.545a.647.647 0 0 0 .39.28c.175.053.41.079.7.079m-.249 2.617c-.79 0-1.439-.042-1.947-.125-.51-.083-.909-.25-1.2-.498-.29-.25-.494-.613-.608-1.09-.114-.479-.17-1.112-.17-1.902v-4.517c0-1.122.212-1.942.638-2.462.425-.518 1.158-.779 2.196-.779h.593c.706 0 1.204.027 1.495.078.29.053.51.12.655.203v-3.864c0-.685-.09-1.126-.265-1.324-.177-.197-.556-.296-1.138-.296-.56 0-.914.114-1.06.343-.145.229-.217.654-.217 1.277v1.839h-2.898V30.13c0-.872.057-1.567.171-2.087.114-.52.328-.92.64-1.2.31-.28.737-.462 1.277-.545.54-.083 1.235-.125 2.087-.125.935 0 1.693.042 2.275.125.581.083 1.033.265 1.355.545.322.28.545.68.67 1.2.125.52.187 1.215.187 2.087v15.018c-.374.104-.946.182-1.713.234-.77.052-1.776.078-3.023.078"/>
        <path fill="#FF0336" d="M118.083 45.462h-40.7l2.893-6.11V13.627h37.807z"/>
        <path fill="#20A14F" d="M80.219 45.462h39.464V5.997H80.22z"/>
        <path fill="#FB0" d="M80.219 45.462h39.464V9.812H80.22z"/>
        <path fill="#FF0336" d="M80.219 45.462h39.464V13.627H80.22z"/>
        <path fill="#FFF" d="M93.603 32.523c-.186-.443-.507-.664-.964-.664-.372 0-.614.071-.728.214-.115.143-.172.428-.172.857v6.985c0 .428.057.714.172.857.114.143.356.214.728.214.457 0 .778-.221.964-.664v-7.8zm-3.985-.022c0-.5.028-.917.086-1.253.056-.336.164-.604.32-.803.158-.2.369-.343.633-.43.264-.085.61-.128 1.039-.128.486 0 .875.08 1.168.236.292.158.517.379.674.664v-4.885h2.208v16.926H93.71v-.921c-.2.371-.454.636-.76.793-.308.157-.718.235-1.232.235-.429 0-.78-.04-1.05-.117a1.222 1.222 0 0 1-.643-.418c-.157-.2-.265-.468-.322-.804a7.816 7.816 0 0 1-.085-1.274v-7.82zM97.695 42.828h2.164V29.994h-2.164v12.834zm0-14.697h2.164v-2.229h-2.164v2.229zM105.536 31.773h-1.5v8.056c0 .443.072.743.215.9.143.157.429.235.857.235h.407v1.864h-.557c-.586 0-1.079-.053-1.478-.16-.4-.108-.722-.272-.965-.493a1.794 1.794 0 0 1-.514-.846c-.1-.343-.15-.75-.15-1.222v-8.334h-.792v-1.778h.792v-3.9h2.186v3.9h1.5v1.778zM109.671 41.243c.314 0 .543-.004.686-.01.143-.008.236-.019.279-.033V37a.92.92 0 0 0-.365-.107 6.269 6.269 0 0 0-.578-.02c-.415 0-.668.078-.76.235-.094.157-.14.457-.14.9v2.014c0 .243.007.442.022.6a.86.86 0 0 0 .106.375.448.448 0 0 0 .268.192c.121.036.282.054.482.054m-.17 1.8c-.544 0-.99-.03-1.34-.086-.35-.057-.625-.171-.825-.343-.2-.171-.34-.421-.418-.75-.078-.328-.118-.763-.118-1.307v-3.106c0-.772.147-1.336.44-1.693.293-.357.796-.536 1.51-.536h.407c.486 0 .828.018 1.028.054.2.036.35.082.45.14v-2.658c0-.471-.06-.774-.182-.91-.12-.136-.382-.204-.782-.204-.385 0-.629.079-.728.236-.1.157-.15.45-.15.878v1.264H106.8v-1.52c0-.6.04-1.079.118-1.436.079-.357.225-.632.44-.825.214-.193.506-.318.878-.375.371-.057.85-.086 1.435-.086.643 0 1.165.029 1.565.086.4.057.71.182.931.375.222.193.376.468.461.825.086.357.129.836.129 1.435v10.327c-.257.072-.65.125-1.179.161-.528.035-1.22.054-2.078.054M114.578 42.828h2.25V40h-2.25z"/>
    </g>
</svg>
